<?xml version="1.0" encoding="UTF-8"?>
<svg id="Layer_1" data-name="Layer 1" xmlns="http://www.w3.org/2000/svg" viewBox="0 0 819.55148 683.07962">
  <defs>
    <style>
      .cls-1 {
        stroke-width: 118px;
      }

      .cls-1, .cls-2, .cls-3, .cls-4, .cls-5, .cls-6, .cls-7 {
        stroke-miterlimit: 10;
      }

      .cls-1, .cls-3, .cls-4, .cls-5, .cls-6 {
        stroke: #fff;
      }

      .cls-1, .cls-3, .cls-5, .cls-7 {
        fill: none;
      }

      .cls-8 {
        stroke-width: 0px;
      }

      .cls-2, .cls-6 {
        fill: #fff;
      }

      .cls-2, .cls-7 {
        stroke: #000;
        stroke-width: 90px;
      }

      .cls-3 {
        stroke-width: 89px;
      }

      .cls-4 {
        stroke-width: 13px;
      }

      .cls-5 {
        stroke-width: 117px;
      }

      .cls-6 {
        stroke-width: 116px;
      }
    </style>
  </defs>
  <line class="cls-6" x1=".00929" y1="589.78561" x2="404.90578" y2="589.72076"/>
  <line class="cls-2" x1="13.00935" y1="589.78939" x2="396.05177" y2="589.32129"/>
  <circle class="cls-1" cx="391.05145" cy="353.32124" r="236"/>
  <circle class="cls-7" cx="391.05145" cy="353.32124" r="236"/>
  <path class="cls-5" d="m696.05004,585.99929l-304.5,3.5"/>
  <polygon class="cls-4" points="806.55148 585.52152 657.07606 671.82129 657.07597 499.22189 806.55148 585.52152"/>
  <line class="cls-3" x1="361.55145" y1="589.32124" x2="663.55145" y2="589.32124"/>
  <polygon class="cls-4" points="219.60606 181.83649 344.61255 12.91637 428.39842 205.63522 219.60606 181.83649"/>
  <path class="cls-7" d="m696.00929,585.78934l-276.95784,3.5319c-66.04216.4681-82.04216-6.5319-82.04216-6.5319"/>
  <path class="cls-8" d="m440.11117,163.70454l-22.65188.41479-3.76859-.48495c-1.79094-.23046-3.58847-.40115-5.3908-.51159-2.1805-.13362-4.89761-.2986-4.99767-.29661l-56.08341,1.11118-.19066-76.10975c-.02124-8.47872,6.8349-15.3693,15.31362-15.39055l25.75361-.06454c28.60098-.07168,51.84476,23.05591,51.91641,51.65689l.09939,39.67515Z"/>
</svg>